<svg xmlns="http://www.w3.org/2000/svg" xmlns:svg="http://www.w3.org/2000/svg" id="svg2" width="64" height="64" version="1.1" viewBox="0 0 64 64"><metadata id="metadata4"/><g id="layer1" transform="translate(0,16)"><path style="color:#fff;font-style:normal;font-variant:normal;font-weight:400;font-stretch:normal;font-size:medium;line-height:normal;font-family:sans-serif;font-variant-ligatures:none;font-variant-position:normal;font-variant-caps:normal;font-variant-numeric:normal;font-variant-alternates:normal;font-feature-settings:normal;text-indent:0;text-align:start;text-decoration:none;text-decoration-line:none;text-decoration-style:solid;text-decoration-color:#fff;letter-spacing:normal;word-spacing:normal;text-transform:none;direction:ltr;block-progression:tb;writing-mode:lr-tb;baseline-shift:baseline;text-anchor:start;white-space:normal;shape-padding:0;clip-rule:nonzero;display:inline;overflow:visible;visibility:visible;opacity:1;isolation:auto;mix-blend-mode:normal;color-interpolation:sRGB;color-interpolation-filters:linearRGB;solid-color:#fff;solid-opacity:1;fill:#fff;fill-opacity:.86274511;fill-rule:evenodd;stroke:none;stroke-width:8;stroke-linecap:round;stroke-linejoin:miter;stroke-miterlimit:4;stroke-dasharray:none;stroke-dashoffset:0;stroke-opacity:1;color-rendering:auto;image-rendering:auto;shape-rendering:auto;text-rendering:auto;enable-background:accumulate" id="path17243" d="m 24.24479,-2.7057285 c -1.039194,0.030964 -2.025514,0.4652809 -2.75,1.2109371 C 15.646156,4.3303824 4,16 4,16 c 0,0 11.632581,11.632583 17.49479,17.494792 3.770037,3.926543 9.582793,-1.886215 5.65625,-5.656251 L 19.312499,20 45.656248,20 c 4,0 4.898902,1.409785 5.755208,3.122396 0.856306,1.712611 0.911459,3.544271 0.911459,3.544271 -0.07649,5.409281 8.076491,5.409281 8,0 0,0 0.05515,-3.501674 -1.755208,-7.122396 C 56.757346,15.923548 52.322915,12 45.656248,12 L 19.312499,12 27.15104,4.1614592 c 2.616414,-2.5432615 0.740973,-6.9747484 -2.90625,-6.8671877 z"/></g></svg>