<svg xmlns="http://www.w3.org/2000/svg" xmlns:svg="http://www.w3.org/2000/svg" id="svg2" width="64" height="64" version="1.1" viewBox="0 0 64 64"><metadata id="metadata4"/><g id="layer1" transform="translate(0,16)"><path style="color:#000;font-style:normal;font-variant:normal;font-weight:400;font-stretch:normal;font-size:medium;line-height:normal;font-family:sans-serif;font-variant-ligatures:none;font-variant-position:normal;font-variant-caps:normal;font-variant-numeric:normal;font-variant-alternates:normal;font-feature-settings:normal;text-indent:0;text-align:start;text-decoration:none;text-decoration-line:none;text-decoration-style:solid;text-decoration-color:#000;letter-spacing:normal;word-spacing:normal;text-transform:none;direction:ltr;block-progression:tb;writing-mode:lr-tb;baseline-shift:baseline;text-anchor:start;white-space:normal;shape-padding:0;clip-rule:nonzero;display:inline;overflow:visible;visibility:visible;opacity:1;isolation:auto;mix-blend-mode:normal;color-interpolation:sRGB;color-interpolation-filters:linearRGB;solid-color:#000;solid-opacity:1;fill:#202020;fill-opacity:.8627451;fill-rule:nonzero;stroke:none;stroke-width:6;stroke-linecap:butt;stroke-linejoin:round;stroke-miterlimit:4;stroke-dasharray:none;stroke-dashoffset:0;stroke-opacity:1;color-rendering:auto;image-rendering:auto;shape-rendering:auto;text-rendering:auto;enable-background:accumulate" id="path10890" d="m 14,1 c -1.656786,1.657e-4 -2.999834,1.3432144 -3,3 l 0,21 6,0 0,-18 13,0 0,14 c 1.66e-4,1.656786 1.343214,2.999834 3,3 l 14,0 0,9 6,0 0,-14 c -1.53e-4,-0.795597 -0.316297,-1.558559 -0.878906,-2.121094 l -15,-14.9999998 C 36.558559,1.3162974 35.795597,1.0001531 35,1 Z M 36,9.2421875 44.757812,18 36,18 Z" transform="translate(0,-16)"/><path style="color:#000;font-style:normal;font-variant:normal;font-weight:400;font-stretch:normal;font-size:medium;line-height:normal;font-family:sans-serif;font-variant-ligatures:none;font-variant-position:normal;font-variant-caps:normal;font-variant-numeric:normal;font-variant-alternates:normal;font-feature-settings:normal;text-indent:0;text-align:start;text-decoration:none;text-decoration-line:none;text-decoration-style:solid;text-decoration-color:#000;letter-spacing:normal;word-spacing:normal;text-transform:none;direction:ltr;block-progression:tb;writing-mode:lr-tb;baseline-shift:baseline;text-anchor:start;white-space:normal;shape-padding:0;clip-rule:nonzero;display:inline;overflow:visible;visibility:visible;opacity:1;isolation:auto;mix-blend-mode:normal;color-interpolation:sRGB;color-interpolation-filters:linearRGB;solid-color:#000;solid-opacity:1;fill:#202020;fill-opacity:.8627451;fill-rule:nonzero;stroke:none;stroke-width:6;stroke-linecap:round;stroke-linejoin:round;stroke-miterlimit:4;stroke-dasharray:none;stroke-dashoffset:0;stroke-opacity:1;color-rendering:auto;image-rendering:auto;shape-rendering:auto;text-rendering:auto;enable-background:accumulate" id="path10888" d="m 8,25 c -1.6567856,1.66e-4 -2.9998343,1.343214 -3,3 l 0,32 c 1.657e-4,1.656786 1.3432144,2.999834 3,3 l 48,0 c 1.656786,-1.66e-4 2.999834,-1.343214 3,-3 l 0,-24 c -1.66e-4,-1.656786 -1.343214,-2.999834 -3,-3 L 35.242188,33 28.121094,25.878906 C 27.558559,25.316297 26.795597,25.000153 26,25 Z" transform="translate(0,-16)"/><path style="opacity:1;fill:#202020;fill-opacity:.23529412;fill-rule:nonzero;stroke:none;stroke-width:6;stroke-linecap:butt;stroke-linejoin:round;stroke-miterlimit:4;stroke-dasharray:none;stroke-dashoffset:0;stroke-opacity:.23529412" id="path11818" d="m 17,7 0,18 9,0 c 0.795597,1.53e-4 1.558559,0.316297 2.121094,0.878906 L 35.242188,33 47,33 47,24 33,24 c -1.656786,-1.66e-4 -2.999834,-1.343214 -3,-3 L 30,7 Z M 36,9.2421875 36,18 l 8.757812,0 z" transform="translate(0,-16)"/></g></svg>